<svg height="256" viewBox="0 0 256 256" width="256" xmlns="http://www.w3.org/2000/svg"><g fill="#fff"><path d="m173.8 188.4c4.5 4.3 6.5 13.1 1.4 19.4-3.7 4.7-15.3 10.6-21.8 11.9-16.6 3.2-14.7-13.1-14.7-28 0-10.5-.3-28.5-.6-47.9l-11.1 3.4-11.1 3.5c-.3 16.8-.5 31.9-.5 41 0 7.5.8 18.4-1.4 23.2-5.8 12.5-29.6-.3-35.2-7.6-3.5-4.7-4-9.9-1.4-14.7 1-1.7 3.7-3.5 2.4-4.3-15.6-5.9-17.1-8.5-27.1-18.5 10.2 1.1 20.5.2 30.9-1.6.3-3.2.5-6.3.7-9.5-13.6 2.7-27.1 3.5-40.4.7 1.4-12.4 2.7-24.8 4.1-37.3-12.5-2.6-24.8-8.5-36.7-19.2-1.1 15.5-2.3 31-3.4 46.4 13.9 12.5 28.3 18.4 42.9 20.3-7 17.7-6.7 27.6.5 39.7 1.1 0 4-2.3 7.6-1.4 11.3 17.7 27 28.7 48.9 36.1 3.9 1.2 11.3 3.8 15.2 6.2 1.4.8 4.4 2.8 4.3 2.8s3.7-2.8 3.8-2.8c6.9-4.2 14.2-5.2 22.8-8.6 15.3-6.1 26.6-14.6 36.1-26.6 2.3-2.8 4.4-6.7 5.7-7.1 3.5-1.1 6.6 2.4 7.1 1 7.7-11.8 7.4-22.3 0-40.4-11.5 11.1-12.2 14-29 19.9zm-109.7-118.1h6.5v3.6h4.5v-3.6h41.7c0 6.4 0 15.7-.2 26.4l12.5-3.9 8.2-2.5c-.1-8-.1-14.9-.1-20h42.7v3.6h4.6v-3.6h5.4c-.3-4 .6-9.1-.4-12.3h-5v-4.6h-4.6v4.6h-43.1v-11.4c3.2-2.6 6.2-3.5 8.5-6.2 17.3-20.9-11.6-49-33.2-32.3-9.2 7.1-11.4 22.6-3.4 32.3 2.5 2.9 5.3 3 8.6 6.6-.3 3.5.6 8.2-.5 10.9h-41.7v-4.5h-4.5v4.5h-6c-1.1 3.3-.2 8.4-.5 12.4zm51.3-44.9a11.2 11.2 0 1 1 11.2 11.2 11.2 11.2 0 0 1 -11.2-11.2z"/><path d="m206 133.3c.7-16.6 1.3-33.2 2-49.8-50.8-9.4-105.4 32.9-156.2 23.5l-5.4 49.2c51.9 10.8 107.8-33.6 159.6-22.9z"/><path d="m211 101.1c-.8 11.2-1.6 22.4-2.5 33.6-12.6-2.6-25.6-1.9-38.6.4-.3 4.3-.6 8.6-1 12.9 26.1-4.7 51.7-2.8 75.8 18.9 1.1-15.5 2.3-31 3.4-46.5-12-10.8-24.4-16.7-37.1-19.3z"/></g></svg>