<svg xmlns="http://www.w3.org/2000/svg" width="256" height="256" viewBox="0 0 256 256"><path fill="#522806" d="M224.7 164.2c9.6-11.3 25.6-44.7 28-49.2a9.3 9.3 0 0 0 .2-3.7s-1.2-.4-1.5 0c-2.1 2.1-14.2 17.1-28.4 32.5V116a2.1 2.1 0 0 0-1.7-2.5 2.2 2.2 0 0 0-2.5 1.7v33a241.3 241.3 0 0 1-24.8 23.7c-.6.6-2 0-3.1 0v-10.4c0-4.2 0-8.4.2-12.5a6.3 6.3 0 0 0-.3-2.7v-5.2c2.2-4.3 4.4-4.8 4.3-5.8s-2.9-2.4-3.9-2.7-.3-.1-.4-.4V71.7a78.9 78.9 0 0 1 11.3-13.2c.6-.5 2.4-2.5 0-2.1a81.5 81.5 0 0 0-11.3 5.1V8.3c0-4.2-.9-5.3-2.1-5.3a2.3 2.3 0 0 0-2.1 2.5v.3a16.5 16.5 0 0 1-5.2 2c-4.8.3-6.9-3.2-11.7 1-7.2 6.1-9-2.4-18.4 5.8-1.1.9 2.2 4.8 2.9 9.2a55 55 0 0 1-1.4 14c8.3-4.4 11.3 1.6 18.7-5.4 3.2-3 11.5.3 15.1 1.9v29.4a106.6 106.6 0 0 0-23.7 16.9c-16.3 15-34.7 37.6-38.3 40a11.8 11.8 0 0 1-5.5 1.4c-.3 0-.2-14.9-.6-18.6-.8-6.6 2.3-9 5.1-13.2.5-.8 1.2-3.7.5-3.6s-4.1 2.6-5.8 0a15.2 15.2 0 0 1-1.2-5.9c-.2-3 0-6.9 0-12.3 0-1.4 6.5.2 8.2-.6s0-2.4-.4-2.5-5.3.2-6.5-.3-1.1-2.2-1.3-3.4c-.5-3.5.7-26.3.6-27.2s.3-2.4-.9-2.6-1 6-2.2 6c-9.5.1-5 6-20.8 7.6-2 .2 1.2 1.8.6 5.7s-1.5 5.7.5 5.8c11.2.2 12.4-4.2 17.1-3.9.5 0 1.2-.4 1.3 2.6s.5 8.7-1 9.1c-3.1.9-6.1-.4-9.1 1.1-.8.3-.1 2.3.7 2.2s8.4-.3 8.6.5c.7 2.4 1.6 20.4-1.4 22.1-3.3 3.2-22.1 15.5-23.7 37.2s10.4 29.9 10.3 31.3a47.1 47.1 0 0 0-7.9 12.5c-5.8 13-.7 28.2.1 28.3 4 .6 7.9 1.7 11.9 2.4s9.4 3.3 8.5 9.1c0 .6-2.6-.8-3.2-.4a63.8 63.8 0 0 0-7.4-3.7c-2.6-.6-45.1-1.7-49.5-2.4-2.3-.4-2.9-2.1-1.7-4.4a7.1 7.1 0 0 0-.5-3.5 83.1 83.1 0 0 0-4.8-9.4 7.2 7.2 0 0 1-1.5-4.2c0-2.3 2.1-.9 2.3-.9 2 1 23.1 13.2 32.5 17 .3.2 1.6-2.8.6-3.4A392.1 392.1 0 0 1 6.6 149a11.7 11.7 0 0 0-3.2-.9c0 .8-.6 1.9-.3 2.2 3.7 4 13.5 12 35.7 29a4.7 4.7 0 0 1 1.3 6.5l-.5.6a5.2 5.2 0 0 0-.2 4.4 46.3 46.3 0 0 0 3.1 5.8c2.4 4 5.3 5.2 4.1 6.6s-12.8-2.6-15.8-3.5-5.2-2.9-6 .2a4.2 4.2 0 0 0 1.8 3.7 65.4 65.4 0 0 1 32.1 34.2 55.9 55.9 0 0 0 10.5 14.6c1.3 1.4 130.6 0 144 0a7.8 7.8 0 0 0 7.8-4.4c3.1-6 10.8-23.5 12.4-25.4s3.2-1 4.4-2.1c8.3-8.3 13.4-40.3 13.2-42.4-1.3.2-18 4.9-22.8 6-2.2.4-5.3-1.8-5-3.6.3-4.1.4-8.3.6-12.5a12.4 12.4 0 0 1 .9-3.8zM183.5 19.5a24.5 24.5 0 0 1 3.1-11.6v23.7a34.9 34.9 0 0 1-3.1-12.2zm-6.4 86.8a60.9 60.9 0 0 1 8.1-27.8c.2-.3.9.7 1.4 1.8v47.9c-.9 1.8-2.7 3.6-5.8 0s-4-16-3.7-22zm8.8 47.6zm.5 53.4c-.4 1.8-.6 9.6-1.8 10.4s-56.7.5-62.2.7-3.8-9-3.9-10.8 5.6-.4 4.3-2.6a23.9 23.9 0 0 1-4.3-9.1 40.6 40.6 0 0 1-1.1-9.2 82.8 82.8 0 0 1 2.3-13.2c2.4-11.6 14-17.9 14.2-19.2s-1-.7-1.6-.7c-2.4 0-9.9 2.7-12.2 2.5s-2.1-20.5-.8-25.4a22.8 22.8 0 0 1 5.6-8.8c5.5-5.2 27.9-30 29.8-31.5-4.8 8.2-10.8 19.9-10.6 26.8.5 22.3 16.6 23.2 11.9 29.4a121.5 121.5 0 0 0-12.2 27c-5.6 24.1.2 34.8 2.8 39.5s35.2-8.6 38.7-9c.6-.1 1.3 2.3 1.1 3.2zm-1.1-24c-1.6 1.1-3.6-12.4-3.2-15.8 1.3-9.6 2.9-12.6 3.6-13.4l.9.7v26.8a3.1 3.1 0 0 1-1.3 1.7zm33.1-10a44.7 44.7 0 0 1-1.6 9.7c-.5 1.3-5.5 2.7-7.1 2.7-3.4.2-5.1 3.1-6 6.8s-5 7.8-7.9 7.7a31.7 31.7 0 0 1-3-3.4 26 26 0 0 1-2.1-3.6v-10.6c14.6-8.5 19.7-8.6 26.7-13.1a9.7 9.7 0 0 1 1 3.8zM24.9 156.8c11.2-4.2 53.5-36.8 61.8-46.7 1.2-1.4 2 0 2 0-17.6 27.4-24.5 66.2-28.4 66.2-.3 0-17.1-12.5-35.2-18.2-.2-.1-.4-1.2-.2-1.3z"/></svg>